<svg width="48" height="48" viewBox="0 0 48 48" fill="none" xmlns="http://www.w3.org/2000/svg">
<path d="M41.727 13.803L23.887 3.5L6.16296 13.729L24.003 24.032L41.727 13.803Z" stroke="black" stroke-linecap="round" stroke-linejoin="round"/>
<path d="M24.003 24.032L6.16296 13.729V34.197L24.003 44.5M24.003 24.032V44.5M24.003 24.032L41.727 13.803V34.271L24.003 44.5M17.446 17.481L30.444 9.977M17.405 9.953L30.485 17.505" stroke="black" stroke-linecap="round" stroke-linejoin="round"/>
<path d="M28.623 13.7544C28.6311 12.2627 26.5432 11.0421 23.9597 11.028C21.3761 11.014 19.2752 12.2119 19.2671 13.7036C19.259 15.1953 21.3468 16.4159 23.9304 16.43C26.5139 16.444 28.6149 15.2461 28.623 13.7544Z" stroke="black" stroke-linecap="round" stroke-linejoin="round"/>
</svg>
