<svg width="48" height="48" viewBox="0 0 48 48" fill="none" xmlns="http://www.w3.org/2000/svg">
<path d="M35.25 14.25C34.5318 14.2496 33.8195 14.3787 33.1472 14.6312C32.7546 13.8202 32.1841 13.1082 31.4782 12.5481C30.7723 11.988 29.9492 11.5944 29.0701 11.3964C28.1911 11.1984 27.2787 11.2013 26.4009 11.4047C25.5231 11.6081 24.7024 12.0068 24 12.5712C23.1184 11.8631 22.0546 11.4187 20.9313 11.2894C19.808 11.16 18.671 11.3509 17.6516 11.8401C16.6321 12.3293 15.7718 13.0969 15.1699 14.0541C14.568 15.0113 14.2491 16.1193 14.25 17.25V19.5H12.75C11.1593 19.5018 9.63418 20.1345 8.50935 21.2594C7.38452 22.3842 6.7518 23.9093 6.75 25.5V28.5C6.75 33.075 8.56741 37.4626 11.8024 40.6976C15.0374 43.9326 19.425 45.75 24 45.75C28.575 45.75 32.9626 43.9326 36.1976 40.6976C39.4326 37.4626 41.25 33.075 41.25 28.5V20.25C41.2482 18.6593 40.6155 17.1342 39.4906 16.0094C38.3658 14.8845 36.8407 14.2518 35.25 14.25ZM36.75 28.5C36.75 31.8815 35.4067 35.1245 33.0156 37.5156C30.6245 39.9067 27.3815 41.25 24 41.25C20.6185 41.25 17.3755 39.9067 14.9844 37.5156C12.5933 35.1245 11.25 31.8815 11.25 28.5V25.5C11.2505 25.1023 11.4086 24.7211 11.6898 24.4398C11.971 24.1586 12.3523 24.0005 12.75 24H14.25V27.75C14.25 28.3467 14.4871 28.919 14.909 29.341C15.331 29.7629 15.9033 30 16.5 30C17.0967 30 17.669 29.7629 18.091 29.341C18.5129 28.919 18.75 28.3467 18.75 27.75V17.25C18.75 16.8522 18.908 16.4706 19.1893 16.1893C19.4706 15.908 19.8522 15.75 20.25 15.75C20.6478 15.75 21.0294 15.908 21.3107 16.1893C21.592 16.4706 21.75 16.8522 21.75 17.25V23.25C21.75 23.8467 21.9871 24.419 22.409 24.841C22.831 25.2629 23.4033 25.5 24 25.5C24.5967 25.5 25.169 25.2629 25.591 24.841C26.0129 24.419 26.25 23.8467 26.25 23.25V17.25C26.25 16.8522 26.408 16.4706 26.6893 16.1893C26.9706 15.908 27.3522 15.75 27.75 15.75C28.1478 15.75 28.5294 15.908 28.8107 16.1893C29.092 16.4706 29.25 16.8522 29.25 17.25V23.25C29.25 23.8467 29.4871 24.419 29.909 24.841C30.331 25.2629 30.9033 25.5 31.5 25.5C32.0967 25.5 32.669 25.2629 33.091 24.841C33.5129 24.419 33.75 23.8467 33.75 23.25V20.25C33.75 19.8522 33.908 19.4706 34.1893 19.1893C34.4706 18.908 34.8522 18.75 35.25 18.75C35.6478 18.75 36.0294 18.908 36.3107 19.1893C36.592 19.4706 36.75 19.8522 36.75 20.25V28.5Z" fill="black"/>
</svg>
