<svg width="24" height="20" viewBox="0 0 24 20" fill="none" xmlns="http://www.w3.org/2000/svg">
<path d="M23.8352 9.56863L15.0352 1.03531C14.9132 0.916939 14.752 0.900376 14.6184 0.991563C14.4844 1.08275 14.4 1.26625 14.4 1.46675V6.80006H9.6V1.46675C9.6 1.26619 9.51562 1.08275 9.38161 0.991563C9.24759 0.901438 9.08681 0.917439 8.9648 1.03531L0.164813 9.56863C0.0612187 9.66894 0 9.82944 0 10.0001C0 10.1708 0.0612187 10.3313 0.164813 10.4316L8.9648 18.9649C9.08639 19.0833 9.24722 19.0988 9.38161 19.0086C9.51562 18.9174 9.6 18.7339 9.6 18.5334V13.2001H14.4V18.5334C14.4 18.734 14.4844 18.9174 14.6184 19.0086C14.6756 19.0476 14.738 19.0668 14.8 19.0668C14.8828 19.0668 14.9656 19.0326 15.0352 18.9649L23.8352 10.4316C23.9388 10.3313 24 10.1708 24 10.0001C24 9.8295 23.9388 9.66894 23.8352 9.56863Z" fill="#F4942F"/>
</svg>
