{
  "accessors": [
    {
      "bufferView": 2,
      "componentType": 5126,
      "count": 1327,
      "max": [
        1.399999976158142,
        1.3999998569488525,
        1.0
      ],
      "min": [
        -1.399999976158142,
        -1.4000000953674316,
        -1.0
      ],
      "type": "VEC3"
    },
    {
      "bufferView": 2,
      "byteOffset": 15924,
      "componentType": 5126,
      "count": 1327,
      "max": [
        1.0,
        1.0,
        1.0
      ],
      "min": [
        -1.0,
        -1.0,
        -1.0
      ],
      "type": "VEC3"
    },
    {
      "bufferView": 3,
      "componentType": 5126,
      "count": 1327,
      "max": [
        1.0,
        1.0,
        0.7448920011520386,
        1.0
      ],
      "min": [
        -1.0,
        -1.0,
        -0.738877534866333,
        -1.0
      ],
      "type": "VEC4"
    },
    {
      "bufferView": 1,
      "componentType": 5126,
      "count": 1327,
      "max": [
        1.4410905838012695,
        0.9987151622772217
      ],
      "min": [
        -0.44207698106765747,
        0.003741711378097534
      ],
      "type": "VEC2"
    },
    {
      "bufferView": 1,
      "byteOffset": 10616,
      "componentType": 5126,
      "count": 1327,
      "max": [
        1.4410905838012695,
        0.9987151622772217
      ],
      "min": [
        -0.44207698106765747,
        0.003741711378097534
      ],
      "type": "VEC2"
    },
    {
      "bufferView": 0,
      "componentType": 5125,
      "count": 2868,
      "type": "SCALAR"
    },
    {
      "bufferView": 2,
      "byteOffset": 31848,
      "componentType": 5126,
      "count": 176,
      "max": [
        1.0205872058868408,
        1.0205872058868408,
        1.0
      ],
      "min": [
        -1.0205872058868408,
        -1.0205872058868408,
        -1.0
      ],
      "type": "VEC3"
    },
    {
      "bufferView": 2,
      "byteOffset": 33960,
      "componentType": 5126,
      "count": 176,
      "max": [
        1.0,
        1.0,
        1.0
      ],
      "min": [
        -1.0,
        -1.0,
        -1.0
      ],
      "type": "VEC3"
    },
    {
      "bufferView": 3,
      "byteOffset": 21232,
      "componentType": 5126,
      "count": 176,
      "max": [
        1.0,
        1.0,
        4.485238207507791e-07,
        1.0
      ],
      "min": [
        -1.0,
        -1.0,
        -1.264448883375735e-06,
        1.0
      ],
      "type": "VEC4"
    },
    {
      "bufferView": 1,
      "byteOffset": 21232,
      "componentType": 5126,
      "count": 176,
      "max": [
        1.9948480129241943,
        0.9999736547470093
      ],
      "min": [
        -1.9855279922485352,
        0.0020983240101486444
      ],
      "type": "VEC2"
    },
    {
      "bufferView": 1,
      "byteOffset": 22640,
      "componentType": 5126,
      "count": 176,
      "max": [
        1.9948480129241943,
        0.9999736547470093
      ],
      "min": [
        -1.9855279922485352,
        0.0020983240101486444
      ],
      "type": "VEC2"
    },
    {
      "bufferView": 0,
      "byteOffset": 11472,
      "componentType": 5125,
      "count": 276,
      "type": "SCALAR"
    },
    {
      "bufferView": 2,
      "byteOffset": 36072,
      "componentType": 5126,
      "count": 180,
      "max": [
        1.0,
        1.0,
        1.000961184501648
      ],
      "min": [
        -1.0,
        -1.0,
        -1.0071022510528564
      ],
      "type": "VEC3"
    },
    {
      "bufferView": 2,
      "byteOffset": 38232,
      "componentType": 5126,
      "count": 180,
      "max": [
        1.0,
        1.0,
        1.0
      ],
      "min": [
        -1.0,
        -1.0,
        -1.0
      ],
      "type": "VEC3"
    },
    {
      "bufferView": 3,
      "byteOffset": 24048,
      "componentType": 5126,
      "count": 180,
      "max": [
        1.0,
        1.0,
        1.0,
        1.0
      ],
      "min": [
        -1.0,
        -1.0,
        -1.0,
        1.0
      ],
      "type": "VEC4"
    },
    {
      "bufferView": 1,
      "byteOffset": 24048,
      "componentType": 5126,
      "count": 180,
      "max": [
        1.000612497329712,
        0.9998401999473572
      ],
      "min": [
        -2.9964375495910645,
        -0.000888698035851121
      ],
      "type": "VEC2"
    },
    {
      "bufferView": 1,
      "byteOffset": 25488,
      "componentType": 5126,
      "count": 180,
      "max": [
        1.000612497329712,
        0.9998401999473572
      ],
      "min": [
        -2.9964375495910645,
        -0.000888698035851121
      ],
      "type": "VEC2"
    },
    {
      "bufferView": 0,
      "byteOffset": 12576,
      "componentType": 5125,
      "count": 276,
      "type": "SCALAR"
    }
  ],
  "asset": {
    "extras": {
      "author": "Théo Lerbeil (https://sketchfab.com/supertheo)",
      "license": "CC-BY-4.0 (http://creativecommons.org/licenses/by/4.0/)",
      "source": "https://sketchfab.com/3d-models/fantasy-scene-stufs-lowpoly-1-b9a19cfdf2fb475b8932d2faf0755a9d",
      "title": "Fantasy Scene Stufs Lowpoly 1"
    },
    "generator": "Sketchfab-12.68.0",
    "version": "2.0"
  },
  "bufferViews": [
    {
      "buffer": 0,
      "byteLength": 13680,
      "name": "floatBufferViews",
      "target": 34963
    },
    {
      "buffer": 0,
      "byteLength": 26928,
      "byteOffset": 13680,
      "byteStride": 8,
      "name": "floatBufferViews",
      "target": 34962
    },
    {
      "buffer": 0,
      "byteLength": 40392,
      "byteOffset": 40608,
      "byteStride": 12,
      "name": "floatBufferViews",
      "target": 34962
    },
    {
      "buffer": 0,
      "byteLength": 26928,
      "byteOffset": 81000,
      "byteStride": 16,
      "name": "floatBufferViews",
      "target": 34962
    }
  ],
  "buffers": [
    {
      "byteLength": 107928,
      "uri": "scene.bin"
    }
  ],
  "images": [
    {
      "uri": "textures/Material.002_baseColor.jpeg"
    },
    {
      "uri": "textures/Material.002_normal.png"
    },
    {
      "uri": "textures/caisse2_baseColor.png"
    },
    {
      "uri": "textures/caisse2_normal.png"
    }
  ],
  "materials": [
    {
      "doubleSided": true,
      "name": "Material.002",
      "normalTexture": {
        "index": 1
      },
      "pbrMetallicRoughness": {
        "baseColorTexture": {
          "index": 0
        },
        "metallicFactor": 0.0,
        "roughnessFactor": 0.5
      }
    },
    {
      "doubleSided": true,
      "name": "caisse.001",
      "normalTexture": {
        "index": 1
      },
      "pbrMetallicRoughness": {
        "baseColorTexture": {
          "index": 0
        },
        "metallicFactor": 0.0,
        "roughnessFactor": 0.5
      }
    },
    {
      "doubleSided": true,
      "name": "caisse2",
      "normalTexture": {
        "index": 3
      },
      "pbrMetallicRoughness": {
        "baseColorTexture": {
          "index": 2
        },
        "metallicFactor": 0.0,
        "roughnessFactor": 0.5
      }
    }
  ],
  "meshes": [
    {
      "name": "barel.004_Material.002_0",
      "primitives": [
        {
          "attributes": {
            "NORMAL": 1,
            "POSITION": 0,
            "TANGENT": 2,
            "TEXCOORD_0": 3,
            "TEXCOORD_1": 4
          },
          "indices": 5,
          "material": 0,
          "mode": 4
        }
      ]
    },
    {
      "name": "caisse.001_caisse.001_0",
      "primitives": [
        {
          "attributes": {
            "NORMAL": 7,
            "POSITION": 6,
            "TANGENT": 8,
            "TEXCOORD_0": 9,
            "TEXCOORD_1": 10
          },
          "indices": 11,
          "material": 1,
          "mode": 4
        }
      ]
    },
    {
      "name": "Cube_caisse2_0",
      "primitives": [
        {
          "attributes": {
            "NORMAL": 13,
            "POSITION": 12,
            "TANGENT": 14,
            "TEXCOORD_0": 15,
            "TEXCOORD_1": 16
          },
          "indices": 17,
          "material": 2,
          "mode": 4
        }
      ]
    }
  ],
  "nodes": [
    {
      "children": [
        1
      ],
      "matrix": [
        -2.220446049250313e-16,
        -6.123232939436859e-17,
        -1.0,
        0.0,
        -1.0,
        -2.465190328815662e-32,
        2.220446049250313e-16,
        0.0,
        -2.465190328815662e-32,
        1.0,
        -6.123232939436859e-17,
        0.0,
        24.071949005126953,
        4.3200090619826496e-15,
        -19.455591201782227,
        1.0
      ],
      "name": "Sketchfab_model"
    },
    {
      "children": [
        2
      ],
      "matrix": [
        1.0,
        0.0,
        0.0,
        0.0,
        0.0,
        0.0,
        1.0,
        0.0,
        0.0,
        -1.0,
        0.0,
        0.0,
        0.0,
        0.0,
        0.0,
        1.0
      ],
      "name": "319cc31ebd50452487e25ada7ac6c6f0.fbx"
    },
    {
      "children": [
        3,
        5,
        7
      ],
      "name": "RootNode"
    },
    {
      "children": [
        4
      ],
      "matrix": [
        40.0,
        0.0,
        0.0,
        0.0,
        0.0,
        -6.5168271756732565e-06,
        -39.999999999999474,
        0.0,
        0.0,
        49.99999999999934,
        -8.14603396959157e-06,
        0.0,
        2.3079872131347656,
        50.0,
        90.13631439208984,
        1.0
      ],
      "name": "barel.004"
    },
    {
      "mesh": 0,
      "name": "barel.004_Material.002_0"
    },
    {
      "children": [
        6
      ],
      "matrix": [
        50.0,
        0.0,
        0.0,
        0.0,
        0.0,
        -8.14603396959157e-06,
        -49.99999999999934,
        0.0,
        0.0,
        49.99999999999934,
        -8.14603396959157e-06,
        0.0,
        1.6787528991699219,
        50.317508697509766,
        -39.86368179321289,
        1.0
      ],
      "name": "caisse.001"
    },
    {
      "mesh": 1,
      "name": "caisse.001_caisse.001_0"
    },
    {
      "children": [
        8
      ],
      "matrix": [
        40.0,
        0.0,
        0.0,
        0.0,
        0.0,
        -6.5168271756732565e-06,
        -39.999999999999474,
        0.0,
        0.0,
        39.999999999999474,
        -6.5168271756732565e-06,
        0.0,
        1.3278961181640625,
        40.49695587158203,
        -149.8643341064453,
        1.0
      ],
      "name": "Cube"
    },
    {
      "mesh": 2,
      "name": "Cube_caisse2_0"
    }
  ],
  "samplers": [
    {
      "magFilter": 9729,
      "minFilter": 9987,
      "wrapS": 10497,
      "wrapT": 10497
    }
  ],
  "scene": 0,
  "scenes": [
    {
      "name": "Sketchfab_Scene",
      "nodes": [
        0
      ]
    }
  ],
  "textures": [
    {
      "sampler": 0,
      "source": 0
    },
    {
      "sampler": 0,
      "source": 1
    },
    {
      "sampler": 0,
      "source": 2
    },
    {
      "sampler": 0,
      "source": 3
    }
  ]
}
